<?xml version="1.0" encoding="UTF-8"?><svg id="Layer_1" xmlns="http://www.w3.org/2000/svg" viewBox="0 0 433.39 52.48"><defs><style>.cls-1{fill:none;stroke:#000;stroke-miterlimit:10;}</style></defs><path class="cls-1" d="M12.31,1c7.85,0,11.45,4.75,11.45,12.53v25.42c0,7.71-3.6,12.46-11.45,12.46H.5V1h11.81ZM12.24,46.3c4.03,0,5.98-2.52,5.98-7.13V13.25c0-4.61-1.94-7.13-6.05-7.13h-6.05v40.18h6.12Z"/><path class="cls-1" d="M34.34,39.53c0,4.54,1.8,7.27,5.9,7.27s5.83-2.74,5.83-7.27V1h5.26v38.24c0,7.63-3.53,12.75-11.31,12.75s-11.23-5.11-11.23-12.75V1h5.54v38.52Z"/><path class="cls-1" d="M64.15,51.41V6.12h-9.29V1h24.12v5.11h-9.29v45.29h-5.54Z"/><path class="cls-1" d="M105.04,13.17v4.54h-5.33v-4.82c0-4.54-1.8-7.27-5.9-7.27s-5.9,2.74-5.9,7.27v26.64c0,4.54,1.87,7.27,5.9,7.27s5.9-2.74,5.9-7.27v-6.55h5.33v6.26c0,7.63-3.6,12.67-11.38,12.67s-11.31-5.04-11.31-12.67V13.17c0-7.63,3.6-12.67,11.31-12.67s11.38,5.04,11.38,12.67Z"/><path class="cls-1" d="M115.77,28.73v22.68h-5.62V1h5.62v22.68h12.39V1h5.62v50.4h-5.62v-22.68h-12.39Z"/><path class="cls-1" d="M156.38,41.26l-1.94,10.15h-5.18L158.9,1h8.14l9.65,50.4h-5.62l-1.94-10.15h-12.75ZM157.1,36.43h11.23l-5.69-29.09-5.54,29.09Z"/><path class="cls-1" d="M186.04,51.41h-5.04V1h7.13l11.67,36.44V1h4.97v50.4h-5.83l-12.89-40.76v40.76Z"/><path class="cls-1" d="M232.77,13.17v4.32h-5.33v-4.61c0-4.54-1.8-7.27-5.9-7.27s-5.9,2.74-5.9,7.27v26.64c0,4.54,1.87,7.27,5.9,7.27s5.9-2.74,5.9-7.27v-10.08h-5.18v-5.04h10.51v14.83c0,7.63-3.6,12.67-11.38,12.67s-11.31-5.04-11.31-12.67V13.17c0-7.63,3.6-12.67,11.31-12.67s11.38,5.04,11.38,12.67Z"/><path class="cls-1" d="M238.1,51.41V1h5.62v45.29h14.4v5.11h-20.02Z"/><path class="cls-1" d="M280.29,23.33v5.04h-12.31v17.93h15.12v5.11h-20.74V1h20.74v5.11h-15.12v17.21h12.31Z"/><path class="cls-1" d="M306.78,51.41V6.12h-9.29V1h24.19v5.11h-9.29v45.29h-5.62Z"/><path class="cls-1" d="M336.81,1c7.92,0,11.23,4.03,11.23,11.52v4.1c0,5.54-1.94,9-6.26,10.37,4.61,1.37,6.34,5.11,6.34,10.51v7.85c0,2.23.07,4.32,1.01,6.05h-5.69c-.65-1.44-.94-2.74-.94-6.12v-7.92c0-5.69-2.66-7.49-7.34-7.49h-3.96v21.53h-5.62V1h11.23ZM335.37,24.77c4.46,0,7.13-1.44,7.13-6.91v-4.82c0-4.54-1.66-6.91-5.83-6.91h-5.47v18.65h4.18Z"/><path class="cls-1" d="M359.56,1v50.4h-5.62V1h5.62Z"/><path class="cls-1" d="M369.56,1l8.21,43.85,8.14-43.85h5.18l-9.43,50.4h-8.28l-9.5-50.4h5.69Z"/><path class="cls-1" d="M401.03,1v50.4h-5.62V1h5.62Z"/><path class="cls-1" d="M412.47,41.26l-1.94,10.15h-5.18l9.65-50.4h8.14l9.65,50.4h-5.62l-1.94-10.15h-12.75ZM413.2,36.43h11.23l-5.69-29.09-5.54,29.09Z"/></svg>